<svg id="visual" viewBox="0 0 900 600" width="900" height="600" xmlns="http://www.w3.org/2000/svg" xmlns:xlink="http://www.w3.org/1999/xlink" version="1.1"><path d="M0 362L50 362L50 350L100 350L100 380L150 380L150 387L200 387L200 349L250 349L250 394L300 394L300 421L350 421L350 410L400 410L400 385L450 385L450 377L500 377L500 425L550 425L550 412L600 412L600 443L650 443L650 440L700 440L700 371L750 371L750 413L800 413L800 357L850 357L850 390L900 390L900 362L900 601L900 601L850 601L850 601L800 601L800 601L750 601L750 601L700 601L700 601L650 601L650 601L600 601L600 601L550 601L550 601L500 601L500 601L450 601L450 601L400 601L400 601L350 601L350 601L300 601L300 601L250 601L250 601L200 601L200 601L150 601L150 601L100 601L100 601L50 601L50 601L0 601Z" fill="#1c1f56"></path><path d="M0 448L50 448L50 420L100 420L100 410L150 410L150 480L200 480L200 437L250 437L250 469L300 469L300 468L350 468L350 459L400 459L400 469L450 469L450 439L500 439L500 428L550 428L550 429L600 429L600 423L650 423L650 476L700 476L700 439L750 439L750 405L800 405L800 477L850 477L850 470L900 470L900 474L900 601L900 601L850 601L850 601L800 601L800 601L750 601L750 601L700 601L700 601L650 601L650 601L600 601L600 601L550 601L550 601L500 601L500 601L450 601L450 601L400 601L400 601L350 601L350 601L300 601L300 601L250 601L250 601L200 601L200 601L150 601L150 601L100 601L100 601L50 601L50 601L0 601Z" fill="#1a1949"></path><path d="M0 463L50 463L50 463L100 463L100 480L150 480L150 492L200 492L200 481L250 481L250 493L300 493L300 484L350 484L350 461L400 461L400 479L450 479L450 459L500 459L500 478L550 478L550 469L600 469L600 490L650 490L650 492L700 492L700 483L750 483L750 494L800 494L800 497L850 497L850 518L900 518L900 511L900 601L900 601L850 601L850 601L800 601L800 601L750 601L750 601L700 601L700 601L650 601L650 601L600 601L600 601L550 601L550 601L500 601L500 601L450 601L450 601L400 601L400 601L350 601L350 601L300 601L300 601L250 601L250 601L200 601L200 601L150 601L150 601L100 601L100 601L50 601L50 601L0 601Z" fill="#16133d"></path><path d="M0 518L50 518L50 539L100 539L100 558L150 558L150 552L200 552L200 531L250 531L250 540L300 540L300 511L350 511L350 552L400 552L400 518L450 518L450 523L500 523L500 515L550 515L550 566L600 566L600 549L650 549L650 514L700 514L700 519L750 519L750 547L800 547L800 565L850 565L850 559L900 559L900 510L900 601L900 601L850 601L850 601L800 601L800 601L750 601L750 601L700 601L700 601L650 601L650 601L600 601L600 601L550 601L550 601L500 601L500 601L450 601L450 601L400 601L400 601L350 601L350 601L300 601L300 601L250 601L250 601L200 601L200 601L150 601L150 601L100 601L100 601L50 601L50 601L0 601Z" fill="#130d31"></path></svg>