<svg id="visual" viewBox="0 0 900 600" width="900" height="600" xmlns="http://www.w3.org/2000/svg" xmlns:xlink="http://www.w3.org/1999/xlink" version="1.1"><path d="M0 339L129 339L129 323L257 323L257 302L386 302L386 310L514 310L514 384L643 384L643 280L771 280L771 375L900 375L900 370L900 601L900 601L771 601L771 601L643 601L643 601L514 601L514 601L386 601L386 601L257 601L257 601L129 601L129 601L0 601Z" fill="#1c1f56"></path><path d="M0 382L129 382L129 449L257 449L257 396L386 396L386 391L514 391L514 358L643 358L643 351L771 351L771 433L900 433L900 451L900 601L900 601L771 601L771 601L643 601L643 601L514 601L514 601L386 601L386 601L257 601L257 601L129 601L129 601L0 601Z" fill="#181643"></path><path d="M0 459L129 459L129 524L257 524L257 526L386 526L386 482L514 482L514 485L643 485L643 545L771 545L771 465L900 465L900 450L900 601L900 601L771 601L771 601L643 601L643 601L514 601L514 601L386 601L386 601L257 601L257 601L129 601L129 601L0 601Z" fill="#130d31"></path></svg>