<svg xmlns="http://www.w3.org/2000/svg" viewBox="0 0 1920 1080"><g transform="
          rotate(0 960 540) 
          translate(-0 -0)
          scale(1)
        "><rect width="1920" height="1080" fill="rgb(255, 255, 255)"></rect><g transform="translate(0, 0)"><path fill="rgb(249, 249, 249)" fill-opacity="1" d="M0,352.943L64,350.075C128,347.207,256,341.471,384,340.581C512,339.692,640,343.65,768,344.095C896,344.54,1024,341.472,1152,303.183C1280,264.894,1408,191.383,1536,185.175C1664,178.967,1792,240.06,1856,270.607L1920,301.154L1920,1080L1856,1080C1792,1080,1664,1080,1536,1080C1408,1080,1280,1080,1152,1080C1024,1080,896,1080,768,1080C640,1080,512,1080,384,1080C256,1080,128,1080,64,1080L0,1080Z"></path></g><g transform="translate(0, 360)"><path fill="rgb(243, 243, 243)" fill-opacity="1" d="M0,5.526L64,49.209C128,92.892,256,180.258,384,202.019C512,223.78,640,179.937,768,139.356C896,98.774,1024,61.455,1152,80.719C1280,99.983,1408,175.829,1536,189.505C1664,203.181,1792,154.687,1856,130.44L1920,106.192L1920,720L1856,720C1792,720,1664,720,1536,720C1408,720,1280,720,1152,720C1024,720,896,720,768,720C640,720,512,720,384,720C256,720,128,720,64,720L0,720Z"></path></g><g transform="translate(0, 720)"><path fill="rgb(237, 237, 237)" fill-opacity="1" d="M0,106.039L64,141.249C128,176.458,256,246.877,384,284.697C512,322.517,640,327.739,768,284.675C896,241.611,1024,150.263,1152,112.623C1280,74.983,1408,91.052,1536,126.273C1664,161.493,1792,215.866,1856,243.052L1920,270.238L1920,360L1856,360C1792,360,1664,360,1536,360C1408,360,1280,360,1152,360C1024,360,896,360,768,360C640,360,512,360,384,360C256,360,128,360,64,360L0,360Z"></path></g></g></svg>